# xmcd
#
# Track frame offsets: 
#        150
#        17809
#        42030
#        64264
#        84810
#        107304
#        136496
#        164920
#        190079
#        212206
#
# Disc length: 3154 seconds
#
# Revision: 1
# Processed by: cddbd v1.5.2PL0 Copyright (c) Steve Scherf et al.
# Submitted via: ExactAudioCopy v0.99pb5
#
DISCID=830c500a
DTITLE=April Hill - Love 360
DYEAR=2008
DGENRE=Soul
TTITLE0=The Search
TTITLE1=Feeling' You
TTITLE2=You Got Me
TTITLE3=I Wanna Be Free
TTITLE4=I Want You
TTITLE5=Hope He'll Be Happier
TTITLE6=Manipulation
TTITLE7=I Can't Stop Loving You
TTITLE8=Today
TTITLE9=No More Tears
EXTD=
EXTT0=
EXTT1=
EXTT2=
EXTT3=
EXTT4=
EXTT5=
EXTT6=
EXTT7=
EXTT8=
EXTT9=
PLAYORDER=
